<svg xmlns="http://www.w3.org/2000/svg" fill="none" viewBox="0 0 24 24" id="Home--Streamline-Rounded-Material" height="24" width="24"><desc>Home Streamline Icon: https://streamlinehq.com</desc><path fill="#000000" d="M5.5 19.5h3.75V14c0 -0.2125 0.0719 -0.39065 0.21575 -0.5345 0.14365 -0.14365 0.32175 -0.2155 0.53425 -0.2155h4c0.2125 0 0.39065 0.07185 0.5345 0.2155 0.14365 0.14385 0.2155 0.322 0.2155 0.5345v5.5H18.5V9.75L12 4.875 5.5 9.75V19.5Zm-1.5 0V9.75c0 -0.2375 0.053165 -0.4625 0.1595 -0.675 0.106165 -0.2125 0.253 -0.3875 0.4405 -0.525l6.5 -4.875c0.26135 -0.2 0.56 -0.3 0.896 -0.3 0.336 0 0.63735 0.1 0.904 0.3l6.5 4.875c0.1875 0.1375 0.3344 0.3125 0.44075 0.525 0.10615 0.2125 0.15925 0.4375 0.15925 0.675V19.5c0 0.4125 -0.14685 0.7656 -0.4405 1.05925C19.26565 20.8531 18.9125 21 18.5 21h-4.5c-0.2125 0 -0.3906 -0.0719 -0.53425 -0.21575 -0.14385 -0.14365 -0.21575 -0.32175 -0.21575 -0.53425v-5.5h-2.5v5.5c0 0.2125 -0.07185 0.3906 -0.2155 0.53425 -0.14385 0.14385 -0.322 0.21575 -0.5345 0.21575h-4.5c-0.4125 0 -0.765585 -0.1469 -1.05925 -0.44075C4.146915 20.2656 4 19.9125 4 19.5Z" stroke-width="0.5"></path></svg>